<svg xmlns="http://www.w3.org/2000/svg" xmlns:xlink="http://www.w3.org/1999/xlink" width="300" zoomAndPan="magnify" viewBox="60 70 200 200" height="300" preserveAspectRatio="xMidYMid meet" version="1.0"><defs><clipPath id="9331c783b4"><path d="M 138 180 L 237 180 L 237 212.1875 L 138 212.1875 Z M 138 180 " clip-rule="nonzero"/></clipPath><clipPath id="4522ac7131"><path d="M 131.003906 107.1875 L 244 107.1875 L 244 170 L 131.003906 170 Z M 131.003906 107.1875 " clip-rule="nonzero"/></clipPath></defs><g clip-path="url(#9331c783b4)"><path fill="#ffffff" d="M 236.371094 180.59375 L 188.085938 197.980469 L 138.617188 181.210938 L 138.617188 195.75 L 187.496094 212.417969 C 187.496094 212.417969 230.195312 197.363281 231.527344 196.816406 C 232.855469 196.269531 235.566406 193.988281 235.707031 193.132812 C 234.996094 192.847656 231.859375 192.609375 231.667969 189.902344 C 231.476562 187.199219 231.667969 183.445312 231.667969 183.445312 Z M 236.371094 180.59375 " fill-opacity="1" fill-rule="nonzero"/></g><path fill="#ffffff" d="M 231.527344 178.527344 C 232.855469 177.984375 235.566406 175.703125 235.707031 174.847656 C 234.996094 174.5625 231.859375 174.324219 231.667969 171.617188 C 231.476562 168.910156 231.667969 165.15625 231.667969 165.15625 L 236.371094 162.308594 L 188.085938 179.691406 L 138.617188 162.925781 L 138.617188 177.460938 L 187.496094 194.132812 C 187.496094 194.132812 230.195312 179.074219 231.527344 178.527344 Z M 231.527344 178.527344 " fill-opacity="1" fill-rule="nonzero"/><g clip-path="url(#4522ac7131)"><path fill="#ffffff" d="M 232.503906 141.160156 L 232.503906 130.398438 L 243.984375 126.476562 L 187.496094 107.191406 L 131.003906 126.476562 L 161.863281 137.011719 L 161.863281 158.191406 L 162.074219 158.484375 C 164.621094 162.03125 168.4375 164.929688 173.109375 166.867188 C 177.457031 168.664062 182.453125 169.617188 187.566406 169.617188 C 192.679688 169.617188 197.679688 168.664062 202.023438 166.867188 C 206.695312 164.929688 210.515625 162.03125 213.0625 158.484375 L 213.273438 158.191406 L 213.273438 136.964844 L 230.257812 131.164062 L 230.257812 141.09375 C 228.578125 141.777344 227.378906 144.0625 227.378906 146.855469 C 227.378906 150.203125 229.101562 152.824219 231.304688 152.824219 C 233.507812 152.824219 235.234375 150.199219 235.234375 146.855469 C 235.234375 144.148438 234.101562 141.914062 232.503906 141.160156 Z M 187.496094 109.570312 L 237.023438 126.476562 L 231.234375 128.453125 L 194.8125 125.429688 C 194.183594 123.507812 191.859375 122.121094 189.011719 122.121094 C 185.664062 122.121094 183.039062 124.035156 183.039062 126.476562 C 183.039062 128.921875 185.664062 130.835938 189.011719 130.835938 C 191.785156 130.835938 194.058594 129.519531 194.757812 127.679688 L 225.917969 130.269531 L 187.496094 143.386719 L 137.964844 126.476562 Z M 192.734375 126.476562 C 192.734375 127.476562 191.203125 128.585938 189.011719 128.585938 C 186.820312 128.585938 185.292969 127.476562 185.292969 126.476562 C 185.292969 125.480469 186.820312 124.371094 189.011719 124.371094 C 191.203125 124.371094 192.734375 125.480469 192.734375 126.476562 Z M 211.023438 157.460938 C 208.71875 160.539062 205.316406 163.066406 201.160156 164.789062 C 197.085938 166.476562 192.386719 167.371094 187.566406 167.371094 C 182.746094 167.371094 178.046875 166.476562 173.972656 164.789062 C 169.816406 163.066406 166.414062 160.539062 164.109375 157.460938 L 164.109375 137.78125 L 187.496094 145.765625 L 211.023438 137.730469 Z M 231.304688 150.574219 C 230.621094 150.574219 229.625 149.125 229.625 146.855469 C 229.625 144.585938 230.621094 143.136719 231.304688 143.136719 C 231.988281 143.136719 232.984375 144.585938 232.984375 146.855469 C 232.984375 149.125 231.988281 150.574219 231.304688 150.574219 Z M 231.304688 150.574219 " fill-opacity="1" fill-rule="nonzero"/></g></svg>